<svg xmlns="http://www.w3.org/2000/svg" xmlns:xlink="http://www.w3.org/1999/xlink" width="500" zoomAndPan="magnify" viewBox="0 0 375 127.500001" height="170" preserveAspectRatio="xMidYMid meet" version="1.0"><defs><g/><clipPath id="70a0c32125"><path d="M 55 2.8125 L 105 2.8125 L 105 34 L 55 34 Z M 55 2.8125 " clip-rule="nonzero"/></clipPath><clipPath id="01e7dd3ede"><path d="M 0.730469 103 L 117 103 L 117 123.566406 L 0.730469 123.566406 Z M 0.730469 103 " clip-rule="nonzero"/></clipPath></defs><path fill="#805333" d="M 104.8125 10.207031 L 115.28125 12.355469 C 115.988281 12.535156 116.550781 13.085938 116.746094 13.796875 C 116.941406 14.507812 116.738281 15.265625 116.222656 15.789062 L 107.945312 22.160156 " fill-opacity="1" fill-rule="nonzero"/><path fill="#af8066" d="M 93.699219 63.28125 C 91.332031 67.65625 88.121094 71.519531 84.257812 74.640625 C 74.078125 82.828125 55.761719 82.828125 41.519531 80.78125 C 37.257812 80.15625 33.0625 79.15625 28.980469 77.792969 C 32.855469 75.410156 36.546875 72.742188 40.03125 69.808594 C 48.679688 72.082031 59.855469 73.617188 70.011719 70.546875 C 76.535156 68.753906 81.945312 64.15625 84.785156 57.980469 C 87.550781 60.074219 90.542969 61.851562 93.699219 63.28125 Z M 93.699219 63.28125 " fill-opacity="1" fill-rule="nonzero"/><path fill="#f18d46" d="M 106.644531 25.515625 C 99.742188 34.789062 98.503906 37.796875 98.503906 45.984375 C 98.34375 52.058594 96.695312 58.003906 93.699219 63.28125 C 90.542969 61.851562 87.550781 60.074219 84.785156 57.980469 C 88.957031 48.707031 86.578125 37.570312 80.1875 33.703125 C 78.511719 32.679688 76.761719 31.785156 74.957031 31.023438 C 78.476562 17.757812 91.96875 9.183594 104.039062 8.9375 C 105.890625 11.457031 107.160156 14.359375 107.761719 17.429688 C 108.519531 20.164062 108.113281 23.09375 106.644531 25.515625 Z M 106.644531 25.515625 " fill-opacity="1" fill-rule="nonzero"/><g clip-path="url(#70a0c32125)"><path fill="#af8066" d="M 104.039062 8.9375 C 91.96875 9.183594 78.476562 17.757812 74.957031 31.023438 C 67.179688 27.746094 60.785156 28.640625 55.761719 33.703125 L 69.988281 19.394531 C 72.289062 17.082031 74.589844 14.730469 76.929688 12.417969 C 81.570312 7.832031 87.554688 2 94.65625 2.941406 C 98.464844 3.570312 101.855469 5.738281 104.039062 8.9375 Z M 104.039062 8.9375 " fill-opacity="1" fill-rule="nonzero"/></g><path fill="#7f5b53" d="M 43.429688 46.128906 C 43.003906 46.539062 42.554688 46.988281 42.128906 47.4375 " fill-opacity="1" fill-rule="nonzero"/><path fill="#7f5b53" d="M 40.824219 48.746094 C 40.398438 49.15625 39.949219 49.609375 39.523438 50.058594 C 39.09375 50.46875 38.648438 50.917969 38.21875 51.367188 " fill-opacity="1" fill-rule="nonzero"/><path fill="#7f5b53" d="M 84.785156 57.980469 C 81.945312 64.15625 76.535156 68.753906 70.011719 70.546875 C 59.855469 73.617188 48.679688 72.082031 40.03125 69.808594 C 34.953125 68.464844 30.007812 66.652344 25.253906 64.40625 L 27.269531 62.359375 C 28.714844 60.90625 30.832031 58.777344 33.292969 56.320312 L 34.476562 55.132812 C 34.863281 54.726562 35.269531 54.316406 35.695312 53.90625 C 36.105469 53.496094 36.511719 53.066406 36.9375 52.65625 L 39.523438 50.058594 C 39.949219 49.628906 40.378906 49.179688 40.824219 48.746094 C 41.273438 48.320312 41.679688 47.867188 42.128906 47.4375 C 42.574219 47.007812 43.003906 46.558594 43.429688 46.128906 C 45.160156 44.367188 46.847656 42.667969 48.417969 41.09375 L 55.761719 33.703125 C 60.785156 28.65625 67.179688 27.761719 74.957031 31.023438 C 76.761719 31.785156 78.511719 32.679688 80.1875 33.703125 C 86.578125 37.570312 88.957031 48.707031 84.785156 57.980469 Z M 84.785156 57.980469 " fill-opacity="1" fill-rule="nonzero"/><path fill="#59474e" d="M 40.03125 69.808594 C 36.546875 72.742188 32.855469 75.410156 28.980469 77.792969 C 21.972656 82.09375 14.546875 85.664062 6.820312 88.449219 C 5.925781 88.769531 4.925781 88.421875 4.417969 87.613281 C 3.914062 86.800781 4.03125 85.746094 4.703125 85.070312 L 17.09375 72.59375 L 25.234375 64.40625 L 25.253906 64.40625 C 30.007812 66.652344 34.953125 68.464844 40.03125 69.808594 Z M 40.03125 69.808594 " fill-opacity="1" fill-rule="nonzero"/><path fill="#2c3e50" d="M 100.539062 17.328125 C 100.539062 18.460938 99.625 19.375 98.503906 19.375 C 97.378906 19.375 96.46875 18.460938 96.46875 17.328125 C 96.46875 16.199219 97.378906 15.28125 98.503906 15.28125 C 99.625 15.28125 100.539062 16.199219 100.539062 17.328125 Z M 100.539062 17.328125 " fill-opacity="1" fill-rule="nonzero"/><g clip-path="url(#01e7dd3ede)"><path fill="#805333" d="M 2.847656 123.539062 C 1.808594 123.535156 0.9375 122.746094 0.828125 121.703125 C 0.722656 120.664062 1.414062 119.710938 2.429688 119.492188 C 3.101562 119.347656 70.265625 105.101562 114.695312 103.074219 C 115.808594 103.050781 116.742188 103.910156 116.820312 105.027344 C 116.84375 105.570312 116.652344 106.097656 116.289062 106.5 C 115.925781 106.902344 115.414062 107.140625 114.875 107.164062 C 70.785156 109.179688 3.941406 123.355469 3.269531 123.496094 C 3.132812 123.527344 2.988281 123.539062 2.847656 123.539062 Z M 2.847656 123.539062 " fill-opacity="1" fill-rule="nonzero"/></g><path fill="#804537" d="M 116.820312 121.492188 C 116.460938 121.492188 116.109375 121.394531 115.800781 121.214844 L 93.9375 108.394531 C 92.964844 107.824219 92.636719 106.570312 93.203125 105.59375 C 93.769531 104.617188 95.015625 104.285156 95.988281 104.855469 L 117.84375 117.667969 C 118.648438 118.132812 119.042969 119.082031 118.800781 119.980469 C 118.558594 120.878906 117.746094 121.5 116.820312 121.492188 Z M 116.820312 121.492188 " fill-opacity="1" fill-rule="nonzero"/><path fill="#59474e" d="M 73.410156 115.738281 C 72.429688 115.742188 71.585938 115.035156 71.40625 114.066406 C 71.226562 113.09375 71.761719 112.132812 72.679688 111.78125 C 72.84375 111.71875 73.003906 111.644531 73.160156 111.5625 C 72.945312 111.296875 72.699219 111.058594 72.429688 110.855469 C 71.511719 110.203125 71.296875 108.925781 71.945312 108.003906 C 72.597656 107.082031 73.867188 106.863281 74.785156 107.519531 C 76.367188 108.527344 77.335938 110.273438 77.355469 112.160156 C 77.226562 113.214844 76.5625 114.667969 74.140625 115.601562 C 73.90625 115.691406 73.660156 115.738281 73.410156 115.738281 Z M 73.410156 115.738281 " fill-opacity="1" fill-rule="nonzero"/><path fill="#59474e" d="M 85.113281 114.226562 C 84.132812 114.226562 83.289062 113.523438 83.109375 112.550781 C 82.929688 111.578125 83.464844 110.617188 84.382812 110.265625 C 84.546875 110.203125 84.707031 110.128906 84.859375 110.046875 C 84.652344 109.785156 84.410156 109.550781 84.140625 109.347656 C 83.546875 108.925781 83.222656 108.214844 83.289062 107.488281 C 83.355469 106.757812 83.804688 106.121094 84.46875 105.816406 C 85.128906 105.507812 85.902344 105.582031 86.496094 106.003906 C 88.074219 107.015625 89.039062 108.761719 89.058594 110.644531 C 88.929688 111.695312 88.265625 113.148438 85.84375 114.085938 C 85.609375 114.175781 85.363281 114.222656 85.113281 114.226562 Z M 85.113281 114.226562 " fill-opacity="1" fill-rule="nonzero"/><path fill="#59474e" d="M 62.726562 111.933594 C 62.613281 111.933594 62.5 111.925781 62.386719 111.90625 C 61.277344 111.71875 60.53125 110.660156 60.71875 109.546875 L 62.140625 101.03125 C 62.253906 100.300781 62.746094 99.6875 63.433594 99.425781 C 64.121094 99.164062 64.894531 99.296875 65.457031 99.769531 C 66.023438 100.242188 66.289062 100.984375 66.15625 101.710938 L 64.730469 110.226562 C 64.566406 111.210938 63.71875 111.933594 62.726562 111.933594 Z M 62.726562 111.933594 " fill-opacity="1" fill-rule="nonzero"/><path fill="#59474e" d="M 73.917969 110.910156 C 73.804688 110.910156 73.691406 110.902344 73.578125 110.882812 C 73.046875 110.789062 72.570312 110.492188 72.257812 110.050781 C 71.945312 109.605469 71.820312 109.058594 71.910156 108.523438 L 73.476562 99.207031 C 73.597656 98.488281 74.09375 97.886719 74.777344 97.632812 C 75.457031 97.375 76.222656 97.507812 76.785156 97.972656 C 77.34375 98.4375 77.617188 99.171875 77.492188 99.890625 L 75.925781 109.210938 C 75.753906 110.191406 74.910156 110.910156 73.917969 110.910156 Z M 73.917969 110.910156 " fill-opacity="1" fill-rule="nonzero"/><path fill="#59474e" d="M 85.3125 109.722656 C 84.84375 109.722656 84.386719 109.558594 84.023438 109.257812 L 65.359375 93.847656 C 63.695312 92.445312 63.417969 89.976562 64.726562 88.238281 C 65.972656 86.601562 70.171875 81.074219 71.910156 79.335938 C 72.421875 78.800781 73.175781 78.589844 73.886719 78.777344 C 74.597656 78.960938 75.15625 79.523438 75.339844 80.238281 C 75.527344 80.953125 75.316406 81.714844 74.785156 82.226562 C 73.550781 83.472656 70.339844 87.578125 67.96875 90.71875 L 86.605469 106.09375 C 87.269531 106.644531 87.519531 107.550781 87.230469 108.367188 C 86.941406 109.179688 86.171875 109.722656 85.3125 109.722656 Z M 85.3125 109.722656 " fill-opacity="1" fill-rule="nonzero"/><path fill="#59474e" d="M 73.609375 111.238281 C 73.140625 111.238281 72.683594 111.074219 72.320312 110.773438 L 51.847656 93.847656 C 50.191406 92.4375 49.921875 89.972656 51.234375 88.238281 C 52.132812 87.046875 55.238281 82.953125 57.273438 80.574219 C 57.734375 79.972656 58.484375 79.675781 59.226562 79.800781 C 59.96875 79.925781 60.582031 80.457031 60.820312 81.175781 C 61.058594 81.894531 60.878906 82.6875 60.359375 83.234375 C 58.398438 85.523438 55.359375 89.53125 54.476562 90.707031 L 74.894531 107.613281 C 75.558594 108.160156 75.808594 109.070312 75.515625 109.882812 C 75.226562 110.695312 74.460938 111.238281 73.601562 111.238281 Z M 73.609375 111.238281 " fill-opacity="1" fill-rule="nonzero"/><g fill="#f18d46" fill-opacity="1"><g transform="translate(128.230158, 77.216464)"><g><path d="M 31.390625 -43.59375 L 49.578125 -43.59375 L 49.578125 -41.40625 L 13.0625 -41.40625 L 13.0625 -43.59375 Z M 31.265625 -29.4375 L 55.5625 -29.4375 L 55.5625 -27.109375 L 32.734375 -27.109375 L 31.015625 -24.546875 C 30.691406 -24.054688 29.1875 -21.859375 26.5 -17.953125 C 26.007812 -17.296875 25.113281 -16.007812 23.8125 -14.09375 C 22.507812 -12.1875 21.570312 -10.867188 21 -10.140625 C 19.375 -7.691406 18.582031 -6.425781 18.625 -6.34375 C 18.664062 -6.269531 19.945312 -6.3125 22.46875 -6.46875 C 23.039062 -6.550781 24.789062 -6.691406 27.71875 -6.890625 C 30.65625 -7.097656 32.976562 -7.242188 34.6875 -7.328125 C 40.300781 -7.734375 43.109375 -7.9375 43.109375 -7.9375 C 43.191406 -8.019531 42.867188 -8.753906 42.140625 -10.140625 C 41.484375 -11.523438 40.832031 -12.664062 40.1875 -13.5625 C 39.695312 -14.457031 39.328125 -15.023438 39.078125 -15.265625 C 38.835938 -15.585938 38.675781 -15.953125 38.59375 -16.359375 L 38.59375 -17.09375 L 39.328125 -16.859375 C 39.898438 -16.691406 40.507812 -16.40625 41.15625 -16 C 41.882812 -15.675781 42.617188 -15.226562 43.359375 -14.65625 C 44.085938 -14.164062 44.941406 -13.429688 45.921875 -12.453125 C 46.734375 -11.640625 47.46875 -10.867188 48.125 -10.140625 C 48.613281 -9.484375 49.265625 -8.546875 50.078125 -7.328125 C 50.890625 -6.109375 51.539062 -5.007812 52.03125 -4.03125 C 52.601562 -2.96875 52.867188 -2.414062 52.828125 -2.375 C 52.785156 -2.34375 51.476562 -1.976562 48.90625 -1.28125 C 46.34375 -0.59375 45.019531 -0.265625 44.9375 -0.296875 C 44.863281 -0.335938 44.804688 -0.6875 44.765625 -1.34375 C 44.722656 -2 44.617188 -2.691406 44.453125 -3.421875 C 44.367188 -4.148438 44.289062 -4.554688 44.21875 -4.640625 C 44.21875 -4.640625 42.628906 -4.554688 39.453125 -4.390625 C 38.472656 -4.316406 37.269531 -4.238281 35.84375 -4.15625 C 34.414062 -4.070312 33.625 -4.03125 33.46875 -4.03125 C 32.40625 -3.945312 28.414062 -3.703125 21.5 -3.296875 C 14.332031 -2.890625 10.707031 -2.726562 10.625 -2.8125 C 10.539062 -2.8125 10.945312 -3.421875 11.84375 -4.640625 C 12.582031 -5.703125 13.765625 -7.410156 15.390625 -9.765625 C 15.796875 -10.253906 16.363281 -11.046875 17.09375 -12.140625 C 17.832031 -13.242188 18.769531 -14.585938 19.90625 -16.171875 C 21.050781 -17.765625 21.945312 -19.050781 22.59375 -20.03125 L 27.484375 -26.984375 L 17.21875 -27.109375 L 6.96875 -27.109375 L 6.96875 -29.4375 Z M 31.390625 -43.59375 L 49.578125 -43.59375 L 49.578125 -41.40625 L 13.0625 -41.40625 L 13.0625 -43.59375 Z M 31.390625 -43.59375 "/></g></g></g><g fill="#f18d46" fill-opacity="1"><g transform="translate(190.750603, 77.216464)"><g><path d="M 32.125 -47.875 L 34.8125 -47.875 L 34.8125 -43.59375 C 34.8125 -40.664062 34.726562 -38.957031 34.5625 -38.46875 C 34.476562 -37.894531 34.273438 -37.285156 33.953125 -36.640625 L 33.59375 -35.65625 L 33.953125 -35.90625 C 34.117188 -35.988281 34.8125 -36.476562 36.03125 -37.375 C 37.332031 -38.351562 38.304688 -39.085938 38.953125 -39.578125 C 39.523438 -39.984375 40.460938 -40.710938 41.765625 -41.765625 C 42.828125 -42.660156 43.359375 -43.148438 43.359375 -43.234375 C 43.359375 -43.316406 43.113281 -43.5625 42.625 -43.96875 C 42.300781 -44.207031 41.972656 -44.453125 41.640625 -44.703125 C 41.398438 -44.859375 41.398438 -45.097656 41.640625 -45.421875 C 41.890625 -45.753906 42.175781 -45.878906 42.5 -45.796875 C 42.820312 -45.796875 43.394531 -45.675781 44.21875 -45.4375 C 45.03125 -45.1875 45.882812 -44.898438 46.78125 -44.578125 C 47.59375 -44.253906 48.609375 -43.765625 49.828125 -43.109375 C 50.972656 -42.535156 51.992188 -41.925781 52.890625 -41.28125 C 53.773438 -40.707031 54.644531 -39.992188 55.5 -39.140625 C 56.363281 -38.285156 57.039062 -37.492188 57.53125 -36.765625 C 58.007812 -36.023438 58.25 -35.617188 58.25 -35.546875 C 58.25 -35.378906 58.128906 -35.296875 57.890625 -35.296875 C 57.722656 -35.296875 56.828125 -35.210938 55.203125 -35.046875 C 53.578125 -34.960938 52.597656 -34.882812 52.265625 -34.8125 L 51.546875 -34.6875 L 50.078125 -36.515625 C 49.671875 -36.921875 49.203125 -37.425781 48.671875 -38.03125 C 48.140625 -38.644531 47.832031 -38.992188 47.75 -39.078125 L 47.140625 -39.8125 L 45.4375 -38.59375 C 44.375 -37.863281 43.03125 -36.96875 41.40625 -35.90625 C 39.613281 -34.84375 37.984375 -33.90625 36.515625 -33.09375 C 34.804688 -32.113281 32.648438 -30.972656 30.046875 -29.671875 C 27.273438 -28.296875 25.320312 -27.320312 24.1875 -26.75 L 22.109375 -25.890625 L 36.640625 -25.765625 L 51.171875 -25.765625 L 51.171875 -23.9375 L 37.609375 -23.9375 L 37.609375 -18.3125 L 51.296875 -18.3125 L 51.171875 -17.46875 L 51.171875 -16.609375 L 44.328125 -16.484375 L 37.609375 -16.484375 L 37.609375 -10.75 L 44.453125 -10.625 L 51.296875 -10.625 L 51.171875 -9.765625 L 51.171875 -8.921875 L 44.453125 -8.921875 L 37.609375 -8.796875 L 37.609375 -7.578125 C 37.535156 -6.679688 37.394531 -5.925781 37.1875 -5.3125 C 36.988281 -4.695312 36.765625 -4.144531 36.515625 -3.65625 C 36.273438 -3.175781 36.15625 -2.9375 36.15625 -2.9375 C 36.15625 -2.851562 38.675781 -2.8125 43.71875 -2.8125 L 51.171875 -2.8125 L 51.171875 -0.984375 L 42.75 -0.859375 C 37.050781 -0.859375 33.851562 -0.816406 33.15625 -0.734375 C 32.46875 -0.648438 32.125 -0.648438 32.125 -0.734375 C 32.125 -0.816406 29.925781 -0.859375 25.53125 -0.859375 L 18.8125 -0.859375 L 18.5625 0.125 C 18.320312 0.769531 18.035156 1.421875 17.703125 2.078125 C 17.378906 2.722656 17.054688 3.210938 16.734375 3.546875 C 16.410156 3.867188 16.046875 4.03125 15.640625 4.03125 L 15.015625 4.03125 L 14.90625 -9.28125 C 14.90625 -18.15625 14.863281 -22.632812 14.78125 -22.71875 C 14.78125 -22.875 14.410156 -22.789062 13.671875 -22.46875 C 12.773438 -22.144531 11.71875 -21.78125 10.5 -21.375 C 9.039062 -20.96875 7.65625 -20.601562 6.34375 -20.28125 L 4.28125 -19.78125 L 4.28125 -21.25 L 6.34375 -22.109375 C 7.726562 -22.597656 9.441406 -23.25 11.484375 -24.0625 C 13.835938 -25.113281 15.664062 -25.925781 16.96875 -26.5 C 18.351562 -27.15625 19.90625 -27.890625 21.625 -28.703125 C 23.082031 -29.515625 24.832031 -30.488281 26.875 -31.625 C 28.820312 -32.6875 29.753906 -33.238281 29.671875 -33.28125 C 29.597656 -33.320312 29.5625 -35.742188 29.5625 -40.546875 L 29.5625 -47.875 Z M 25.640625 -23.9375 L 19.171875 -23.9375 L 19.171875 -18.3125 L 32.125 -18.3125 L 32.125 -23.9375 Z M 25.640625 -16.484375 L 19.171875 -16.484375 L 19.296875 -13.5625 L 19.296875 -10.75 L 32.125 -10.75 L 32.125 -16.484375 Z M 25.640625 -8.796875 L 19.171875 -8.796875 L 19.171875 -6.109375 C 19.171875 -4.234375 19.171875 -3.210938 19.171875 -3.046875 C 19.085938 -3.046875 19.109375 -3.023438 19.234375 -2.984375 C 19.359375 -2.953125 19.664062 -2.914062 20.15625 -2.875 C 20.644531 -2.832031 21.273438 -2.8125 22.046875 -2.8125 C 22.816406 -2.8125 24.015625 -2.8125 25.640625 -2.8125 L 32.125 -2.8125 L 32.125 -8.796875 Z M 19.65625 -45.3125 C 19.820312 -45.71875 19.945312 -45.921875 20.03125 -45.921875 C 20.113281 -45.921875 20.945312 -45.59375 22.53125 -44.9375 C 24.125 -44.289062 24.921875 -43.925781 24.921875 -43.84375 C 24.921875 -43.84375 24.753906 -43.476562 24.421875 -42.75 C 24.015625 -42.007812 23.523438 -41.273438 22.953125 -40.546875 C 22.390625 -39.734375 21.738281 -38.960938 21 -38.234375 C 20.101562 -37.335938 19.289062 -36.644531 18.5625 -36.15625 C 17.75 -35.5 16.8125 -34.925781 15.75 -34.4375 C 14.695312 -33.875 13.84375 -33.507812 13.1875 -33.34375 C 12.375 -33.09375 11.578125 -32.882812 10.796875 -32.71875 C 10.023438 -32.5625 9.128906 -32.460938 8.109375 -32.421875 C 7.097656 -32.378906 6.59375 -32.378906 6.59375 -32.421875 C 6.59375 -32.460938 6.710938 -32.769531 6.953125 -33.34375 C 7.203125 -33.914062 7.488281 -34.21875 7.8125 -34.25 C 8.144531 -34.289062 8.632812 -34.394531 9.28125 -34.5625 C 10.007812 -34.800781 10.703125 -35.085938 11.359375 -35.421875 C 12.003906 -35.660156 12.695312 -36.023438 13.4375 -36.515625 C 14.164062 -37.003906 14.773438 -37.535156 15.265625 -38.109375 C 15.753906 -38.597656 16.242188 -39.125 16.734375 -39.6875 C 17.140625 -40.175781 17.503906 -40.707031 17.828125 -41.28125 C 18.078125 -41.769531 18.40625 -42.503906 18.8125 -43.484375 C 19.300781 -44.617188 19.582031 -45.226562 19.65625 -45.3125 Z M 33.765625 -30.890625 C 33.804688 -30.972656 34.171875 -30.992188 34.859375 -30.953125 C 35.554688 -30.921875 36.269531 -30.738281 37 -30.40625 C 37.65625 -30.082031 38.1875 -29.675781 38.59375 -29.1875 C 39 -28.695312 39.320312 -28.207031 39.5625 -27.71875 C 39.8125 -27.226562 39.9375 -26.984375 39.9375 -26.984375 C 39.851562 -26.910156 39.300781 -26.75 38.28125 -26.5 C 37.269531 -26.257812 36.703125 -26.140625 36.578125 -26.140625 C 36.453125 -26.140625 36.269531 -26.421875 36.03125 -26.984375 C 35.863281 -27.554688 35.617188 -28.171875 35.296875 -28.828125 C 34.890625 -29.472656 34.523438 -29.921875 34.203125 -30.171875 C 33.867188 -30.578125 33.722656 -30.816406 33.765625 -30.890625 Z M 33.765625 -30.890625 "/></g></g></g><g fill="#f18d46" fill-opacity="1"><g transform="translate(253.271047, 77.216464)"><g><path d="M 11.96875 -47.875 L 14.40625 -47.875 L 14.53125 -46.78125 L 14.53125 -45.671875 L 47.875 -45.671875 L 47.875 -47.875 L 52.890625 -47.875 L 52.890625 0.25 L 52.515625 0.984375 C 52.347656 1.390625 52.160156 1.710938 51.953125 1.953125 C 51.753906 2.203125 51.453125 2.488281 51.046875 2.8125 C 50.722656 3.050781 50.234375 3.296875 49.578125 3.546875 C 48.929688 3.703125 48.484375 3.820312 48.234375 3.90625 L 47.875 4.03125 L 47.875 -43.359375 L 14.53125 -43.359375 L 14.40625 -21.5 L 14.40625 0.25 L 13.921875 1.21875 C 13.679688 1.875 13.316406 2.363281 12.828125 2.6875 C 12.335938 3.007812 11.765625 3.296875 11.109375 3.546875 C 10.546875 3.703125 10.140625 3.820312 9.890625 3.90625 L 9.53125 4.03125 L 9.53125 -47.875 Z M 25.890625 -38.28125 C 25.890625 -38.320312 27.007812 -38.34375 29.25 -38.34375 C 31.488281 -38.34375 32.609375 -38.28125 32.609375 -38.15625 C 32.609375 -38.039062 32.28125 -37.128906 31.625 -35.421875 C 31.0625 -33.785156 30.453125 -32.195312 29.796875 -30.65625 C 29.304688 -29.269531 28.65625 -27.722656 27.84375 -26.015625 L 26.875 -23.6875 L 27.609375 -21.984375 C 28.085938 -20.765625 28.53125 -19.625 28.9375 -18.5625 C 29.351562 -17.5 29.800781 -16.113281 30.28125 -14.40625 C 30.769531 -12.613281 31.054688 -11.640625 31.140625 -11.484375 L 31.140625 -11.109375 L 24.296875 -11.109375 L 24.1875 -11.609375 C 24.1875 -11.679688 24.144531 -11.859375 24.0625 -12.140625 C 23.976562 -12.429688 23.894531 -12.820312 23.8125 -13.3125 C 23.726562 -13.800781 23.648438 -14.207031 23.578125 -14.53125 C 23.242188 -16.15625 23.078125 -17.007812 23.078125 -17.09375 C 22.992188 -17.09375 22.953125 -17.070312 22.953125 -17.03125 C 22.953125 -16.988281 22.671875 -16.601562 22.109375 -15.875 C 21.535156 -15.144531 20.960938 -14.453125 20.390625 -13.796875 L 19.421875 -12.828125 L 17.953125 -12.953125 L 16.609375 -12.953125 L 18.078125 -15.75 C 19.210938 -17.707031 20.066406 -19.296875 20.640625 -20.515625 C 21.296875 -21.816406 21.625 -22.566406 21.625 -22.765625 C 21.625 -22.972656 21.316406 -23.972656 20.703125 -25.765625 C 20.085938 -27.554688 19.578125 -28.859375 19.171875 -29.671875 C 18.765625 -30.648438 18.398438 -31.425781 18.078125 -32 C 17.671875 -32.8125 17.265625 -33.460938 16.859375 -33.953125 C 16.453125 -34.523438 16.285156 -34.8125 16.359375 -34.8125 C 16.359375 -34.882812 16.644531 -34.984375 17.21875 -35.109375 C 17.789062 -35.234375 18.195312 -35.171875 18.4375 -34.921875 C 18.769531 -34.765625 19.175781 -34.441406 19.65625 -33.953125 C 20.144531 -33.460938 20.71875 -32.894531 21.375 -32.25 C 21.945312 -31.59375 22.515625 -30.859375 23.078125 -30.046875 L 23.9375 -28.828125 L 24.0625 -29.4375 C 24.0625 -29.519531 24.097656 -29.640625 24.171875 -29.796875 C 24.253906 -29.960938 24.316406 -30.1875 24.359375 -30.46875 C 24.398438 -30.757812 24.460938 -30.984375 24.546875 -31.140625 C 24.710938 -31.878906 25 -33.265625 25.40625 -35.296875 C 25.726562 -37.253906 25.890625 -38.25 25.890625 -38.28125 Z M 44.09375 -37.125 C 46.289062 -37.039062 47.390625 -36.960938 47.390625 -36.890625 C 47.390625 -36.722656 47.101562 -35.90625 46.53125 -34.4375 C 46.207031 -33.382812 45.71875 -32 45.0625 -30.28125 C 44.738281 -29.3125 44.210938 -27.890625 43.484375 -26.015625 L 42.5 -23.6875 L 43.234375 -22.109375 C 43.722656 -21.128906 44.128906 -20.109375 44.453125 -19.046875 C 44.859375 -17.992188 45.1875 -16.976562 45.4375 -16 C 45.675781 -14.9375 45.957031 -13.753906 46.28125 -12.453125 C 46.53125 -11.148438 46.65625 -10.414062 46.65625 -10.25 C 46.65625 -10.09375 45.515625 -10.015625 43.234375 -10.015625 L 39.6875 -10.015625 L 39.328125 -12.21875 C 39.078125 -13.519531 38.875 -14.492188 38.71875 -15.140625 L 38.46875 -15.875 L 37.859375 -14.78125 C 37.367188 -14.039062 36.878906 -13.347656 36.390625 -12.703125 C 35.898438 -11.972656 35.535156 -11.484375 35.296875 -11.234375 C 35.046875 -10.910156 34.59375 -10.75 33.9375 -10.75 C 33.289062 -10.75 32.96875 -10.789062 32.96875 -10.875 C 32.96875 -10.875 33.191406 -11.21875 33.640625 -11.90625 C 34.085938 -12.601562 34.554688 -13.4375 35.046875 -14.40625 C 35.535156 -15.550781 35.984375 -16.691406 36.390625 -17.828125 C 36.796875 -18.890625 37.039062 -19.664062 37.125 -20.15625 C 37.207031 -20.476562 37.003906 -21.332031 36.515625 -22.71875 C 36.023438 -24.101562 35.617188 -25.242188 35.296875 -26.140625 C 34.890625 -27.035156 34.441406 -27.929688 33.953125 -28.828125 C 33.460938 -29.640625 33.113281 -30.207031 32.90625 -30.53125 C 32.707031 -30.851562 32.628906 -31.035156 32.671875 -31.078125 C 32.710938 -31.117188 33.019531 -31.222656 33.59375 -31.390625 C 34.238281 -31.472656 34.804688 -31.429688 35.296875 -31.265625 C 35.785156 -31.023438 36.316406 -30.695312 36.890625 -30.28125 C 37.453125 -29.957031 37.9375 -29.550781 38.34375 -29.0625 C 38.832031 -28.65625 39.117188 -28.578125 39.203125 -28.828125 C 39.203125 -28.898438 39.445312 -30.28125 39.9375 -32.96875 C 40.425781 -35.65625 40.671875 -37 40.671875 -37 C 40.671875 -37.082031 41.8125 -37.125 44.09375 -37.125 Z M 44.09375 -37.125 "/></g></g></g><g fill="#f18d46" fill-opacity="1"><g transform="translate(315.791492, 77.216464)"><g><path d="M 32.125 -47.265625 C 32.613281 -47.265625 32.859375 -47.222656 32.859375 -47.140625 C 32.859375 -47.054688 32.976562 -46.363281 33.21875 -45.0625 C 33.46875 -43.757812 33.59375 -43.03125 33.59375 -42.875 C 33.59375 -42.707031 33.179688 -42.5 32.359375 -42.25 C 31.546875 -42.09375 30.816406 -41.851562 30.171875 -41.53125 C 29.429688 -41.195312 28.78125 -40.828125 28.21875 -40.421875 C 27.726562 -40.015625 27.484375 -39.769531 27.484375 -39.6875 C 27.484375 -39.613281 29.84375 -39.578125 34.5625 -39.578125 L 41.765625 -39.578125 L 41.765625 -40.296875 L 46.40625 -40.296875 L 46.40625 -28.828125 L 51.546875 -28.828125 L 56.546875 -28.703125 L 56.546875 -26.5 L 46.40625 -26.5 L 46.40625 -22.59375 C 46.320312 -19.988281 46.203125 -18.441406 46.046875 -17.953125 C 45.796875 -17.378906 45.59375 -16.972656 45.4375 -16.734375 C 45.269531 -16.328125 45.003906 -15.957031 44.640625 -15.625 C 44.273438 -15.300781 43.890625 -15.0625 43.484375 -14.90625 C 43.078125 -14.738281 42.707031 -14.65625 42.375 -14.65625 L 41.765625 -14.65625 L 41.765625 -26.5 L 20.03125 -26.5 L 20.03125 -26.265625 C 19.945312 -25.773438 19.863281 -25.242188 19.78125 -24.671875 C 19.695312 -23.859375 19.535156 -23.046875 19.296875 -22.234375 C 19.054688 -21.410156 18.691406 -20.550781 18.203125 -19.65625 C 17.796875 -18.6875 17.304688 -17.832031 16.734375 -17.09375 C 16.160156 -16.363281 15.523438 -15.671875 14.828125 -15.015625 C 14.140625 -14.367188 13.390625 -13.757812 12.578125 -13.1875 C 12.003906 -12.78125 11.3125 -12.375 10.5 -11.96875 C 9.851562 -11.644531 9.46875 -11.484375 9.34375 -11.484375 C 9.21875 -11.484375 9.15625 -11.804688 9.15625 -12.453125 L 9.15625 -13.4375 L 10.015625 -14.046875 C 10.660156 -14.453125 11.3125 -14.984375 11.96875 -15.640625 C 12.625 -16.285156 13.132812 -16.890625 13.5 -17.453125 C 13.863281 -18.023438 14.25 -18.695312 14.65625 -19.46875 C 15.0625 -20.25 15.347656 -21.085938 15.515625 -21.984375 C 15.753906 -22.960938 15.914062 -23.941406 16 -24.921875 L 16 -26.5 L 6.234375 -26.5 L 6.234375 -28.703125 L 16 -28.703125 L 16 -37.375 L 14.65625 -37.375 L 14.65625 -39.578125 L 19.65625 -39.6875 L 24.671875 -39.6875 L 25.15625 -40.90625 C 25.476562 -41.644531 25.847656 -42.335938 26.265625 -42.984375 C 26.585938 -43.640625 27.113281 -44.332031 27.84375 -45.0625 C 28.5 -45.800781 29.070312 -46.289062 29.5625 -46.53125 C 29.96875 -46.78125 30.351562 -46.960938 30.71875 -47.078125 C 31.082031 -47.203125 31.550781 -47.265625 32.125 -47.265625 Z M 24.125 -37.125 C 24.082031 -37.289062 23.390625 -37.375 22.046875 -37.375 C 20.703125 -37.375 20.007812 -37.3125 19.96875 -37.1875 C 19.925781 -37.0625 19.90625 -35.65625 19.90625 -32.96875 L 20.03125 -28.828125 L 30.90625 -28.828125 L 41.765625 -28.703125 L 41.765625 -37.375 L 33.59375 -37.375 C 28.132812 -37.375 25.34375 -37.3125 25.21875 -37.1875 C 25.09375 -37.0625 25.03125 -36.976562 25.03125 -36.9375 C 25.03125 -36.90625 25.441406 -36.890625 26.265625 -36.890625 C 27.078125 -36.890625 27.929688 -36.804688 28.828125 -36.640625 C 29.722656 -36.472656 30.515625 -36.265625 31.203125 -36.015625 C 31.898438 -35.773438 32.53125 -35.492188 33.09375 -35.171875 C 33.664062 -34.847656 34.238281 -34.441406 34.8125 -33.953125 C 35.300781 -33.546875 35.664062 -33.054688 35.90625 -32.484375 C 36.144531 -31.910156 36.304688 -31.503906 36.390625 -31.265625 C 36.390625 -31.097656 36.285156 -30.953125 36.078125 -30.828125 C 35.878906 -30.710938 35.289062 -30.410156 34.3125 -29.921875 C 32.9375 -29.347656 32.207031 -29.0625 32.125 -29.0625 C 32.039062 -29.0625 31.875 -29.304688 31.625 -29.796875 C 31.382812 -30.367188 31.144531 -30.816406 30.90625 -31.140625 C 30.65625 -31.460938 30.328125 -31.867188 29.921875 -32.359375 C 29.597656 -32.765625 29.109375 -33.210938 28.453125 -33.703125 C 27.804688 -34.191406 27.15625 -34.597656 26.5 -34.921875 C 25.851562 -35.335938 25.203125 -35.644531 24.546875 -35.84375 C 23.898438 -36.050781 23.578125 -36.234375 23.578125 -36.390625 C 23.578125 -36.554688 23.675781 -36.679688 23.875 -36.765625 C 24.082031 -36.847656 24.164062 -36.96875 24.125 -37.125 Z M 26.625 -25.890625 C 27.601562 -25.804688 28.414062 -25.722656 29.0625 -25.640625 C 29.875 -25.484375 30.566406 -25.28125 31.140625 -25.03125 C 31.878906 -24.789062 32.53125 -24.507812 33.09375 -24.1875 C 33.75 -23.851562 34.335938 -23.441406 34.859375 -22.953125 C 35.390625 -22.472656 35.773438 -21.96875 36.015625 -21.4375 C 36.265625 -20.90625 36.367188 -20.515625 36.328125 -20.265625 C 36.285156 -20.023438 35.695312 -19.660156 34.5625 -19.171875 C 34.320312 -19.085938 34.015625 -18.960938 33.640625 -18.796875 C 33.273438 -18.640625 33.007812 -18.5 32.84375 -18.375 C 32.6875 -18.257812 32.566406 -18.203125 32.484375 -18.203125 C 32.242188 -18.117188 32.101562 -18.097656 32.0625 -18.140625 C 32.019531 -18.179688 31.875 -18.445312 31.625 -18.9375 C 31.300781 -19.5 31.019531 -19.984375 30.78125 -20.390625 C 30.445312 -20.796875 29.957031 -21.328125 29.3125 -21.984375 C 28.65625 -22.628906 27.960938 -23.195312 27.234375 -23.6875 C 26.421875 -24.09375 25.648438 -24.421875 24.921875 -24.671875 C 24.097656 -24.910156 23.644531 -25.128906 23.5625 -25.328125 C 23.488281 -25.535156 23.570312 -25.679688 23.8125 -25.765625 C 24.300781 -25.847656 24.585938 -25.890625 24.671875 -25.890625 C 24.992188 -25.890625 25.644531 -25.890625 26.625 -25.890625 Z M 15.640625 -12.328125 C 17.347656 -12.328125 18.21875 -12.242188 18.25 -12.078125 C 18.289062 -11.921875 19.226562 -11.84375 21.0625 -11.84375 C 22.894531 -11.84375 23.832031 -11.921875 23.875 -12.078125 C 23.914062 -12.242188 24.8125 -12.328125 26.5625 -12.328125 C 28.3125 -12.328125 29.1875 -12.242188 29.1875 -12.078125 C 29.1875 -11.921875 30.082031 -11.84375 31.875 -11.84375 C 33.664062 -11.84375 34.582031 -11.921875 34.625 -12.078125 C 34.664062 -12.242188 35.5625 -12.328125 37.3125 -12.328125 C 39.0625 -12.328125 39.9375 -12.242188 39.9375 -12.078125 C 39.9375 -11.921875 40.875 -11.84375 42.75 -11.84375 C 44.625 -11.84375 45.5625 -11.921875 45.5625 -12.078125 C 45.5625 -12.242188 46.453125 -12.328125 48.234375 -12.328125 L 50.8125 -12.328125 L 50.8125 -7.453125 C 50.8125 -4.191406 50.726562 -2.273438 50.5625 -1.703125 C 50.476562 -1.140625 50.359375 -0.734375 50.203125 -0.484375 C 50.035156 -0.160156 49.789062 0.160156 49.46875 0.484375 L 48.96875 1.21875 L 56.0625 1.21875 L 55.9375 2.328125 L 55.9375 3.546875 L 5.859375 3.546875 L 5.859375 1.21875 L 12.953125 1.21875 L 12.953125 -12.328125 Z M 21.125 -9.640625 C 19.332031 -9.640625 18.394531 -9.617188 18.3125 -9.578125 C 18.238281 -9.546875 18.203125 -8.328125 18.203125 -5.921875 C 18.203125 -3.523438 18.140625 -2.101562 18.015625 -1.65625 C 17.890625 -1.207031 17.75 -0.773438 17.59375 -0.359375 C 17.425781 -0.0351562 17.179688 0.328125 16.859375 0.734375 L 16.359375 1.21875 L 20.15625 1.09375 L 23.9375 1.09375 L 23.9375 -9.640625 Z M 31.875 -9.640625 L 29.1875 -9.640625 L 29.1875 -6.34375 C 29.1875 -4.226562 29.144531 -2.804688 29.0625 -2.078125 C 28.90625 -1.347656 28.742188 -0.816406 28.578125 -0.484375 C 28.410156 -0.160156 28.164062 0.160156 27.84375 0.484375 C 27.601562 0.816406 27.484375 1.019531 27.484375 1.09375 C 27.484375 1.175781 28.660156 1.175781 31.015625 1.09375 L 34.5625 1.09375 L 34.5625 -9.640625 Z M 42.75 -9.640625 L 39.9375 -9.640625 L 39.9375 -6.46875 C 39.9375 -4.351562 39.894531 -2.972656 39.8125 -2.328125 C 39.726562 -1.753906 39.566406 -1.222656 39.328125 -0.734375 C 39.078125 -0.242188 38.832031 0.160156 38.59375 0.484375 C 38.269531 0.816406 38.109375 1.019531 38.109375 1.09375 C 38.109375 1.175781 39.367188 1.21875 41.890625 1.21875 L 45.5625 1.21875 L 45.5625 -9.640625 Z M 42.75 -9.640625 "/></g></g></g><g fill="#805332" fill-opacity="1"><g transform="translate(149.889089, 101.653347)"><g><path d="M 19.335938 -5.398438 C 18.328125 -2.65625 16.476562 -0.570312 14.578125 0.0898438 C 15.261719 -2.65625 17.734375 -11.945312 18.605469 -14.804688 C 18.808594 -15.46875 17.550781 -15.675781 17.4375 -15.238281 C 16.863281 -12.953125 15.628906 -8.992188 14.738281 -5.8125 C 13.5 -3.089844 11.441406 -0.984375 9.609375 -0.960938 C 8.03125 -0.9375 8.214844 -3.179688 8.625 -4.78125 C 10.113281 -10.527344 10.34375 -11.671875 11.441406 -15.21875 C 11.648438 -15.878906 10.410156 -16.316406 10.207031 -15.628906 C 7.300781 -12.011719 3.15625 -12.5625 2.472656 -9.519531 C 2.21875 -8.421875 2.585938 -6.796875 4.757812 -6.613281 C 5.355469 -6.542969 5.398438 -7.574219 4.941406 -7.621094 C 3.820312 -7.734375 3.730469 -8.535156 3.890625 -9.3125 C 4.257812 -11.121094 7.277344 -11.371094 9.679688 -13.84375 C 9.015625 -11.488281 8.144531 -8.304688 7.4375 -5.605469 C 6.660156 -2.675781 6.429688 0.207031 9.382812 0.230469 C 11.625 0.25 13.203125 -1.511719 14.277344 -3.273438 C 13.84375 -1.832031 13.433594 -0.0703125 13.179688 0.6875 C 11.234375 1.648438 8.992188 2.859375 8.625 4.644531 C 8.398438 5.765625 8.992188 6.773438 10.34375 6.75 C 11.785156 6.726562 12.699219 5.925781 13.617188 3.457031 C 13.867188 2.769531 14.027344 2.035156 14.210938 1.328125 C 17.046875 0.136719 18.605469 -1.738281 19.976562 -5.035156 C 20.113281 -5.398438 19.449219 -5.699219 19.335938 -5.398438 Z M 12.882812 1.921875 C 12.769531 2.378906 12.5625 3.066406 12.402344 3.523438 C 12.011719 4.644531 11.511719 5.492188 10.617188 5.582031 C 9.863281 5.652344 9.769531 4.988281 10.089844 4.324219 C 10.527344 3.433594 11.898438 2.515625 12.882812 1.921875 Z M 12.882812 1.921875 "/></g></g></g><g fill="#805332" fill-opacity="1"><g transform="translate(172.059519, 101.653347)"><g><path d="M 6.542969 -9.222656 C 6.085938 -7.550781 5.652344 -5.8125 5.125 -4.371094 C 4.234375 -1.945312 2.496094 -0.890625 1.53125 -0.914062 C 0.527344 -0.9375 0.570312 -2.015625 0.800781 -3.089844 C 1.28125 -5.238281 1.945312 -7.621094 2.289062 -9.015625 C 2.402344 -9.472656 1.121094 -9.726562 0.984375 -9.128906 C 0.503906 -7.117188 -0.320312 -4.851562 -0.6875 -2.335938 C -0.914062 -0.710938 -0.0703125 0.113281 0.960938 0.183594 C 2.242188 0.273438 3.753906 -0.410156 5.125 -2.769531 C 4.828125 -1.625 5.078125 0 6.429688 0 C 8.808594 0 10.273438 -3.683594 10.890625 -5.058594 C 11.03125 -5.378906 10.367188 -5.699219 10.273438 -5.445312 C 9.40625 -3.179688 7.917969 -1.007812 6.820312 -1.050781 C 5.421875 -1.097656 7.207031 -7.117188 7.847656 -8.945312 C 8.03125 -9.472656 6.683594 -9.703125 6.542969 -9.222656 Z M 6.542969 -9.222656 "/></g></g></g><g fill="#805332" fill-opacity="1"><g transform="translate(185.14694, 101.653347)"><g><path d="M 5.71875 -9.703125 C 4.097656 -9.726562 2.449219 -7.847656 1.601562 -6.566406 C 1.875 -7.527344 1.96875 -7.894531 2.242188 -8.992188 C 2.378906 -9.566406 1.050781 -9.816406 0.914062 -9.222656 C 0.046875 -5.558594 -0.503906 -3.59375 -1.304688 -0.527344 C -1.488281 0.160156 0.0234375 0.136719 0.113281 -0.273438 C 0.550781 -2.289062 0.664062 -2.746094 1.304688 -4.917969 C 2.378906 -6.726562 4.257812 -8.511719 5.378906 -8.488281 C 6.316406 -8.464844 6.085938 -7.324219 5.902344 -6.566406 C 5.558594 -5.125 4.851562 -2.472656 4.78125 -1.625 C 4.691406 -0.433594 5.195312 0.230469 6.316406 0.230469 C 8.191406 0.230469 9.816406 -2.835938 10.730469 -5.058594 C 10.871094 -5.398438 10.207031 -5.675781 10.113281 -5.445312 C 9.152344 -2.976562 7.574219 -0.847656 6.542969 -0.847656 C 5.835938 -0.847656 6.15625 -1.992188 6.339844 -2.816406 C 6.613281 -3.980469 7.070312 -5.148438 7.34375 -6.316406 C 7.804688 -8.214844 7.4375 -9.679688 5.71875 -9.703125 Z M 5.71875 -9.703125 "/></g></g></g><g fill="#805332" fill-opacity="1"><g transform="translate(198.07421, 101.653347)"><g/></g></g><g fill="#805332" fill-opacity="1"><g transform="translate(205.213065, 101.653347)"><g><path d="M 14.347656 2.722656 C 14.667969 2.722656 15.058594 2.675781 15.421875 2.609375 C 15.859375 2.335938 15.628906 1.394531 15.332031 1.417969 C 14.988281 1.488281 14.667969 1.53125 14.371094 1.53125 C 12.152344 1.53125 10.890625 -0.550781 9.449219 -1.808594 C 12.632812 -4.394531 14.757812 -8.144531 14.757812 -11.511719 C 14.757812 -14.324219 12.8125 -15.996094 9.703125 -15.996094 C 5.972656 -15.996094 3.25 -13.59375 3.226562 -9.910156 C 3.203125 -7.527344 4.644531 -5.515625 7.460938 -5.308594 C 7.917969 -5.261719 8.078125 -6.222656 7.621094 -6.292969 C 5.628906 -6.589844 4.691406 -8.191406 4.691406 -10 C 4.691406 -12.792969 6.542969 -14.804688 9.496094 -14.804688 C 12.011719 -14.804688 13.453125 -13.570312 13.316406 -11.144531 C 13.15625 -8.238281 11.738281 -5.378906 8.695312 -2.539062 C 7.804688 -3.339844 6.84375 -4.140625 5.398438 -4.140625 C 3.777344 -4.140625 2.769531 -2.953125 2.769531 -1.808594 C 2.769531 -0.800781 3.5 0.207031 5.21875 0.207031 C 6.382812 0.207031 7.621094 -0.320312 8.464844 -1.144531 C 10.113281 0.59375 11.785156 2.722656 14.347656 2.722656 Z M 5.261719 -0.890625 C 4.417969 -0.890625 4.050781 -1.371094 4.050781 -1.875 C 4.050781 -2.496094 4.554688 -3.15625 5.355469 -3.15625 C 6.15625 -3.15625 7.070312 -2.65625 7.78125 -1.898438 C 7.117188 -1.371094 6.269531 -0.890625 5.261719 -0.890625 Z M 5.261719 -0.890625 "/></g></g></g><g fill="#805332" fill-opacity="1"><g transform="translate(223.699955, 101.653347)"><g><path d="M 6.542969 -9.222656 C 6.085938 -7.550781 5.652344 -5.8125 5.125 -4.371094 C 4.234375 -1.945312 2.496094 -0.890625 1.53125 -0.914062 C 0.527344 -0.9375 0.570312 -2.015625 0.800781 -3.089844 C 1.28125 -5.238281 1.945312 -7.621094 2.289062 -9.015625 C 2.402344 -9.472656 1.121094 -9.726562 0.984375 -9.128906 C 0.503906 -7.117188 -0.320312 -4.851562 -0.6875 -2.335938 C -0.914062 -0.710938 -0.0703125 0.113281 0.960938 0.183594 C 2.242188 0.273438 3.753906 -0.410156 5.125 -2.769531 C 4.828125 -1.625 5.078125 0 6.429688 0 C 8.808594 0 10.273438 -3.683594 10.890625 -5.058594 C 11.03125 -5.378906 10.367188 -5.699219 10.273438 -5.445312 C 9.40625 -3.179688 7.917969 -1.007812 6.820312 -1.050781 C 5.421875 -1.097656 7.207031 -7.117188 7.847656 -8.945312 C 8.03125 -9.472656 6.683594 -9.703125 6.542969 -9.222656 Z M 6.542969 -9.222656 "/></g></g></g><g fill="#805332" fill-opacity="1"><g transform="translate(236.787376, 101.653347)"><g><path d="M 5.125 -9.679688 C 3.113281 -9.816406 0.871094 -8.214844 -0.0703125 -5.398438 C -0.984375 -2.675781 0.0234375 0 3.042969 0.230469 C 4.578125 0.34375 7.894531 0 9.792969 -5.058594 C 9.910156 -5.378906 9.265625 -5.675781 9.175781 -5.445312 C 7.6875 -1.671875 4.898438 -0.59375 3.089844 -0.914062 C 1.511719 -1.191406 0.777344 -2.5625 1.144531 -4.277344 C 3.867188 -3.433594 6.109375 -4.234375 7.023438 -6.042969 C 7.804688 -7.574219 7.300781 -9.542969 5.125 -9.679688 Z M 4.851562 -8.605469 C 6.269531 -8.605469 6.222656 -7.300781 5.628906 -6.246094 C 4.917969 -4.988281 3.410156 -4.667969 1.351562 -5.125 C 1.851562 -6.957031 3.523438 -8.605469 4.851562 -8.605469 Z M 4.851562 -8.605469 "/></g></g></g><g fill="#805332" fill-opacity="1"><g transform="translate(248.776602, 101.653347)"><g/></g></g><g fill="#805332" fill-opacity="1"><g transform="translate(255.915457, 101.653347)"><g><path d="M 6.523438 0.207031 C 8.078125 0.230469 9.199219 -0.570312 10.089844 -1.601562 C 11.851562 -0.984375 14.234375 -1.417969 15.71875 -5.035156 C 15.878906 -5.398438 15.21875 -5.652344 15.125 -5.445312 C 13.980469 -2.515625 12.058594 -1.921875 10.664062 -2.265625 C 11.648438 -3.273438 12.996094 -6.703125 13.089844 -8.96875 C 13.113281 -9.679688 11.691406 -9.585938 11.691406 -9.152344 C 11.691406 -7.164062 10.480469 -3.890625 9.726562 -3.15625 C 9.246094 -3.753906 8.285156 -2.953125 9.039062 -2.175781 C 8.488281 -1.441406 7.621094 -0.960938 6.863281 -0.960938 C 6.109375 -0.960938 5.902344 -1.511719 6.222656 -3.179688 C 6.773438 -5.996094 7.390625 -7.277344 7.941406 -9.015625 C 8.054688 -9.542969 6.773438 -9.609375 6.613281 -9.085938 C 6.292969 -7.941406 5.652344 -6.269531 5.21875 -4.714844 C 4.277344 -2.058594 2.496094 -0.824219 1.488281 -0.914062 C 0.480469 -1.007812 0.527344 -2.015625 0.753906 -3.089844 C 1.191406 -5.238281 1.96875 -7.621094 2.472656 -9.015625 C 2.632812 -9.449219 1.351562 -9.703125 1.167969 -9.128906 C 0.527344 -7.117188 -0.410156 -4.851562 -0.730469 -2.335938 C -0.9375 -0.710938 -0.113281 0.113281 0.914062 0.183594 C 2.105469 0.25 3.570312 -0.296875 4.851562 -2.195312 C 4.738281 -0.914062 5.148438 0.183594 6.523438 0.207031 Z M 6.523438 0.207031 "/></g></g></g><g fill="#805332" fill-opacity="1"><g transform="translate(273.830371, 101.653347)"><g><path d="M 4.691406 -9.609375 C 1.945312 -9.128906 -0.160156 -6.132812 -0.640625 -3.617188 C -1.050781 -1.511719 -0.390625 0.25 1.511719 0.207031 C 3.15625 0.160156 4.117188 -1.28125 5.035156 -2.769531 C 4.644531 -1.03125 5.378906 0 6.363281 0 C 8.445312 0 10 -2.632812 11.03125 -5.058594 C 11.167969 -5.398438 10.480469 -5.675781 10.410156 -5.445312 C 9.472656 -2.996094 7.824219 -1.050781 6.796875 -1.050781 C 6.222656 -1.050781 6.179688 -1.601562 6.339844 -2.585938 C 6.566406 -4.003906 7.164062 -6.042969 7.460938 -7.164062 C 7.574219 -7.597656 6.339844 -7.964844 6.222656 -7.4375 C 5.308594 -3.273438 2.335938 0.046875 1.167969 -1.167969 C 0.457031 -1.898438 0.710938 -4.027344 1.625 -5.628906 C 2.472656 -7.117188 3.683594 -8.238281 4.941406 -8.511719 C 5.882812 -8.742188 7.070312 -8.445312 8.054688 -7.6875 C 8.351562 -7.414062 9.128906 -8.214844 8.878906 -8.464844 C 7.710938 -9.632812 6.019531 -9.863281 4.691406 -9.609375 Z M 4.691406 -9.609375 "/></g></g></g><g fill="#805332" fill-opacity="1"><g transform="translate(287.055063, 101.653347)"><g><path d="M 5.71875 -9.703125 C 4.097656 -9.726562 2.449219 -7.847656 1.601562 -6.566406 C 1.875 -7.527344 1.96875 -7.894531 2.242188 -8.992188 C 2.378906 -9.566406 1.050781 -9.816406 0.914062 -9.222656 C 0.046875 -5.558594 -0.503906 -3.59375 -1.304688 -0.527344 C -1.488281 0.160156 0.0234375 0.136719 0.113281 -0.273438 C 0.550781 -2.289062 0.664062 -2.746094 1.304688 -4.917969 C 2.378906 -6.726562 4.257812 -8.511719 5.378906 -8.488281 C 6.316406 -8.464844 6.085938 -7.324219 5.902344 -6.566406 C 5.558594 -5.125 4.851562 -2.472656 4.78125 -1.625 C 4.691406 -0.433594 5.195312 0.230469 6.316406 0.230469 C 8.191406 0.230469 9.816406 -2.835938 10.730469 -5.058594 C 10.871094 -5.398438 10.207031 -5.675781 10.113281 -5.445312 C 9.152344 -2.976562 7.574219 -0.847656 6.542969 -0.847656 C 5.835938 -0.847656 6.15625 -1.992188 6.339844 -2.816406 C 6.613281 -3.980469 7.070312 -5.148438 7.34375 -6.316406 C 7.804688 -8.214844 7.4375 -9.679688 5.71875 -9.703125 Z M 5.71875 -9.703125 "/></g></g></g><g fill="#805332" fill-opacity="1"><g transform="translate(299.982334, 101.653347)"><g><path d="M 5.125 -9.679688 C 3.457031 -9.519531 1.761719 -8.488281 0.570312 -6.566406 C -1.351562 -3.476562 -1.28125 0.296875 1.511719 0.207031 C 3.226562 0.160156 4.4375 -1.691406 5.171875 -3.089844 C 4.757812 -1.671875 4.277344 -0.046875 4.050781 0.6875 C 2.058594 1.691406 -0.320312 2.976562 -0.503906 4.828125 C -0.640625 6.15625 0.136719 6.820312 1.328125 6.75 C 2.675781 6.683594 4.003906 6.042969 5.148438 1.304688 C 7.894531 0.0234375 9.472656 -1.785156 10.824219 -5.078125 C 10.9375 -5.378906 10.296875 -5.675781 10.207031 -5.445312 C 9.175781 -2.675781 7.390625 -0.710938 5.492188 0.046875 C 6.40625 -3.179688 6.910156 -5.171875 7.4375 -7.183594 C 7.527344 -7.574219 6.363281 -7.917969 6.246094 -7.503906 C 5.972656 -6.429688 5.605469 -5.421875 5.171875 -4.53125 C 3.867188 -1.851562 2.058594 -0.273438 1.144531 -1.191406 C 0.410156 -1.945312 0.730469 -4.050781 1.625 -5.652344 C 2.5625 -7.300781 3.890625 -8.421875 5.332031 -8.558594 C 6.203125 -8.671875 7.09375 -8.421875 7.964844 -7.734375 C 8.261719 -7.34375 9.085938 -8.167969 8.878906 -8.445312 C 7.804688 -9.40625 6.476562 -9.816406 5.125 -9.679688 Z M 3.363281 3.363281 C 2.496094 6.382812 0.0898438 5.972656 1.050781 4.210938 C 1.488281 3.410156 2.722656 2.539062 3.777344 1.921875 Z M 3.363281 3.363281 "/></g></g></g><g fill="#805332" fill-opacity="1"><g transform="translate(320.139974, 101.653347)"><g><path d="M 5.21875 -9.679688 C 4.210938 -9.679688 2.769531 -9.128906 1.875 -8.125 C 1.992188 -8.421875 2.035156 -8.605469 2.128906 -8.925781 C 2.3125 -9.632812 0.960938 -9.769531 0.847656 -9.246094 C -0.410156 -4.003906 -1.441406 0.390625 -2.769531 6.269531 C -2.835938 6.613281 -1.671875 6.773438 -1.601562 6.382812 C -1.210938 4.347656 -0.527344 1.691406 0.046875 -1.007812 C 1.03125 0.550781 3.707031 0.890625 5.925781 -1.601562 C 7.6875 -0.9375 9.566406 -1.53125 10.960938 -5.058594 C 11.097656 -5.378906 10.433594 -5.652344 10.34375 -5.445312 C 9.222656 -2.609375 8.007812 -1.921875 6.5 -2.265625 C 7.6875 -4.074219 9.128906 -9.679688 5.21875 -9.679688 Z M 4.804688 -8.605469 C 7.164062 -8.671875 6.542969 -5.148438 5.515625 -3.136719 C 5.078125 -3.570312 4.1875 -2.632812 4.851562 -2.128906 C 3.617188 -0.527344 1.257812 -0.480469 0.34375 -1.945312 C 0.730469 -3.59375 1.097656 -5.125 1.53125 -6.703125 C 2.175781 -7.550781 3.59375 -8.558594 4.804688 -8.605469 Z M 4.804688 -8.605469 "/></g></g></g><g fill="#805332" fill-opacity="1"><g transform="translate(333.296031, 101.653347)"><g><path d="M 4.691406 -9.609375 C 1.945312 -9.128906 -0.160156 -6.132812 -0.640625 -3.617188 C -1.050781 -1.511719 -0.390625 0.25 1.511719 0.207031 C 3.15625 0.160156 4.117188 -1.28125 5.035156 -2.769531 C 4.644531 -1.03125 5.378906 0 6.363281 0 C 8.445312 0 10 -2.632812 11.03125 -5.058594 C 11.167969 -5.398438 10.480469 -5.675781 10.410156 -5.445312 C 9.472656 -2.996094 7.824219 -1.050781 6.796875 -1.050781 C 6.222656 -1.050781 6.179688 -1.601562 6.339844 -2.585938 C 6.566406 -4.003906 7.164062 -6.042969 7.460938 -7.164062 C 7.574219 -7.597656 6.339844 -7.964844 6.222656 -7.4375 C 5.308594 -3.273438 2.335938 0.046875 1.167969 -1.167969 C 0.457031 -1.898438 0.710938 -4.027344 1.625 -5.628906 C 2.472656 -7.117188 3.683594 -8.238281 4.941406 -8.511719 C 5.882812 -8.742188 7.070312 -8.445312 8.054688 -7.6875 C 8.351562 -7.414062 9.128906 -8.214844 8.878906 -8.464844 C 7.710938 -9.632812 6.019531 -9.863281 4.691406 -9.609375 Z M 4.691406 -9.609375 "/></g></g></g><g fill="#805332" fill-opacity="1"><g transform="translate(346.520734, 101.653347)"><g><path d="M 5.71875 -9.703125 C 4.097656 -9.726562 2.449219 -7.847656 1.601562 -6.566406 C 1.875 -7.527344 1.96875 -7.894531 2.242188 -8.992188 C 2.378906 -9.566406 1.050781 -9.816406 0.914062 -9.222656 C 0.046875 -5.558594 -0.503906 -3.59375 -1.304688 -0.527344 C -1.488281 0.160156 0.0234375 0.136719 0.113281 -0.273438 C 0.550781 -2.289062 0.664062 -2.746094 1.304688 -4.917969 C 2.378906 -6.726562 4.257812 -8.511719 5.378906 -8.488281 C 6.316406 -8.464844 6.085938 -7.324219 5.902344 -6.566406 C 5.558594 -5.125 4.851562 -2.472656 4.78125 -1.625 C 4.691406 -0.433594 5.195312 0.230469 6.316406 0.230469 C 8.191406 0.230469 9.816406 -2.835938 10.730469 -5.058594 C 10.871094 -5.398438 10.207031 -5.675781 10.113281 -5.445312 C 9.152344 -2.976562 7.574219 -0.847656 6.542969 -0.847656 C 5.835938 -0.847656 6.15625 -1.992188 6.339844 -2.816406 C 6.613281 -3.980469 7.070312 -5.148438 7.34375 -6.316406 C 7.804688 -8.214844 7.4375 -9.679688 5.71875 -9.703125 Z M 5.71875 -9.703125 "/></g></g></g></svg>